# xmcd CD database file
#
# Track frame offsets:
#	150
#	11377
#	25580
#	52707
#	77412
#	105550
#	128727
#	152462
#	169770
#	173032
#	196747
#	218332
#	243700
#
# Disc length: 3457 seconds
#
# Revision: 17
# Processed by: cddbd v1.5.1PL0 Copyright (c) Steve Scherf et al.
# Submitted via: CDex 1.51
#
DISCID=870d7f0d
DTITLE=Alice In Chains - Dirt
DYEAR=1992
DGENRE=Alternative
TTITLE0=Them Bones
TTITLE1=Dam That River
TTITLE2=Rain When I Die
TTITLE3=Sick Man
TTITLE4=Rooster
TTITLE5=Junkhead
TTITLE6=Dirt
TTITLE7=God Smack
TTITLE8=Iron Gland
TTITLE9=Hate To Feel
TTITLE10=Angry Chair
TTITLE11=Down In A Hole
TTITLE12=Would?
EXTD=YEAR: 1992
EXTT0=
EXTT1=
EXTT2=
EXTT3=
EXTT4=
EXTT5=
EXTT6=
EXTT7=
EXTT8=
EXTT9=
EXTT10=
EXTT11=
EXTT12=
PLAYORDER=
